<svg xmlns="http://www.w3.org/2000/svg" version="1.1" xmlns:xlink="http://www.w3.org/1999/xlink" xmlns:svgjs="http://svgjs.dev/svgjs" width="2000" height="449" viewBox="0 0 2000 449"><g transform="matrix(1,0,0,1,-1.2121212121213603,-0.7799506945293047)"><svg viewBox="0 0 396 89" data-background-color="#528265" preserveAspectRatio="xMidYMid meet" height="449" width="2000" xmlns="http://www.w3.org/2000/svg" xmlns:xlink="http://www.w3.org/1999/xlink"><g id="tight-bounds" transform="matrix(1,0,0,1,0.24000000000003752,0.15460047174411784)"><svg viewBox="0 0 395.5199999999999 88.69079905651174" height="88.69079905651174" width="395.5199999999999"><g><svg viewBox="0 0 397.4975999999999 89.13425305179429" height="88.69079905651174" width="395.5199999999999"><g><svg viewBox="0 0 397.4975999999999 89.13425305179429" height="89.13425305179429" width="397.4975999999999"><g id="textblocktransform"><svg viewBox="0 0 397.4975999999999 89.13425305179429" height="89.13425305179429" width="397.4975999999999" id="textblock"><g><rect width="397.4975999999999" height="5.162622772166261" x="0" y="63.328947846473156" fill="#000000" opacity="1" stroke-width="0" stroke="transparent" fill-opacity="1" class="rect-r$-0" data-fill-palette-color="primary" rx="1%" id="r$-0" data-palette-color="#c9efc7"></rect></g><g transform="matrix(1,0,0,1,0.9887999999999693,0)"><svg viewBox="0 0 395.52 57.2473241619841" height="57.2473241619841" width="395.52"><g transform="matrix(1,0,0,1,0,0)"><svg width="395.52" viewBox="-0.1 -37.1 258.03000000000003 37.35" height="57.2473241619841" data-palette-color="#c9efc7"><path d="M29.15-31.45L27.8-28.55Q22.65-31.55 16.4-32L16.4-32 16.4 0 12.7 0 12.7-32Q6.55-31.6 1.25-28.55L1.25-28.55-0.1-31.45Q6.4-35.3 14.5-35.3L14.5-35.3Q22.75-35.3 29.15-31.45L29.15-31.45ZM36.9-21.15Q38.15-23.8 40.62-25.15 43.1-26.5 46.75-26.5L46.75-26.5 46.75-23.05 45.9-23.1Q41.75-23.1 39.4-20.55 37.05-18 37.05-13.4L37.05-13.4 37.05 0 33.5 0 33.5-26.3 36.9-26.3 36.9-21.15ZM64.14-2.9Q66.59-2.9 68.67-3.78 70.75-4.65 72.19-6.35L72.19-6.35 74.19-4.05Q72.44-1.95 69.84-0.85 67.25 0.25 64.09 0.25L64.09 0.25Q60.05 0.25 56.9-1.48 53.75-3.2 51.99-6.25 50.24-9.3 50.24-13.15L50.24-13.15Q50.24-17 51.92-20.05 53.59-23.1 56.55-24.8 59.5-26.5 63.25-26.5L63.25-26.5Q66.75-26.5 69.57-24.9 72.4-23.3 74.07-20.45 75.75-17.6 75.84-13.95L75.84-13.95 54.25-9.75Q55.25-6.55 57.87-4.73 60.5-2.9 64.14-2.9L64.14-2.9ZM63.25-23.45Q60.5-23.45 58.32-22.18 56.15-20.9 54.92-18.63 53.7-16.35 53.7-13.4L53.7-13.4Q53.7-12.65 53.75-12.3L53.75-12.3 72.3-15.9Q71.69-19.2 69.25-21.33 66.8-23.45 63.25-23.45L63.25-23.45ZM103.54-26.3L107.09-26.3 107.09 0 103.69 0 103.69-5.2Q102.09-2.55 99.47-1.15 96.84 0.25 93.54 0.25L93.54 0.25Q89.84 0.25 86.84-1.45 83.84-3.15 82.14-6.2 80.44-9.25 80.44-13.15L80.44-13.15Q80.44-17.05 82.14-20.1 83.84-23.15 86.84-24.83 89.84-26.5 93.54-26.5L93.54-26.5Q96.74-26.5 99.32-25.18 101.89-23.85 103.54-21.3L103.54-21.3 103.54-26.3ZM93.84-2.9Q96.59-2.9 98.82-4.17 101.04-5.45 102.32-7.8 103.59-10.15 103.59-13.15L103.59-13.15Q103.59-16.15 102.32-18.5 101.04-20.85 98.82-22.13 96.59-23.4 93.84-23.4L93.84-23.4Q91.04-23.4 88.82-22.13 86.59-20.85 85.32-18.5 84.04-16.15 84.04-13.15L84.04-13.15Q84.04-10.15 85.32-7.8 86.59-5.45 88.82-4.17 91.04-2.9 93.84-2.9L93.84-2.9ZM128.69-4.15L129.94-1.6Q128.94-0.7 127.49-0.23 126.04 0.25 124.44 0.25L124.44 0.25Q120.74 0.25 118.74-1.75 116.74-3.75 116.74-7.4L116.74-7.4 116.74-32.05 120.29-32.05 120.29-26.3 128.24-26.3 128.24-23.3 120.29-23.3 120.29-7.6Q120.29-5.25 121.44-4.03 122.59-2.8 124.79-2.8L124.79-2.8Q127.19-2.8 128.69-4.15L128.69-4.15ZM174.59-35.3Q180.59-35.3 183.94-31.85 187.29-28.4 187.29-21.85L187.29-21.85 187.29 0 183.64 0 183.64-21.75Q183.64-26.85 181.06-29.43 178.49-32 174.04-32L174.04-32Q169.34-32 166.69-29.28 164.04-26.55 164.04-20.95L164.04-20.95 164.04 0 160.39 0 160.39-21.75Q160.39-26.85 157.89-29.43 155.39-32 150.94-32L150.94-32Q146.19-32 143.51-29.28 140.84-26.55 140.84-20.95L140.84-20.95 140.84 0 137.14 0 137.14-35 140.69-35 140.69-29.15Q142.14-32.15 144.99-33.73 147.84-35.3 151.74-35.3L151.74-35.3Q155.84-35.3 158.76-33.58 161.69-31.85 162.99-28.75L162.99-28.75Q164.49-31.95 167.51-33.63 170.54-35.3 174.59-35.3L174.59-35.3ZM197.69 0L197.69-26.3 201.24-26.3 201.24 0 197.69 0ZM199.49-32.05Q198.39-32.05 197.64-32.8 196.89-33.55 196.89-34.6L196.89-34.6Q196.89-35.6 197.64-36.35 198.39-37.1 199.49-37.1L199.49-37.1Q200.59-37.1 201.34-36.38 202.09-35.65 202.09-34.65L202.09-34.65Q202.09-33.55 201.34-32.8 200.59-32.05 199.49-32.05L199.49-32.05ZM224.53-26.5Q229.48-26.5 232.41-23.63 235.33-20.75 235.33-15.25L235.33-15.25 235.33 0 231.78 0 231.78-14.9Q231.78-19 229.73-21.15 227.68-23.3 223.88-23.3L223.88-23.3Q219.63-23.3 217.16-20.78 214.68-18.25 214.68-13.8L214.68-13.8 214.68 0 211.13 0 211.13-26.3 214.53-26.3 214.53-21.45Q215.98-23.85 218.56-25.18 221.13-26.5 224.53-26.5L224.53-26.5ZM256.68-4.15L257.93-1.6Q256.93-0.7 255.48-0.23 254.03 0.25 252.43 0.25L252.43 0.25Q248.73 0.25 246.73-1.75 244.73-3.75 244.73-7.4L244.73-7.4 244.73-32.05 248.28-32.05 248.28-26.3 256.23-26.3 256.23-23.3 248.28-23.3 248.28-7.6Q248.28-5.25 249.43-4.03 250.58-2.8 252.78-2.8L252.78-2.8Q255.18-2.8 256.68-4.15L256.68-4.15Z" opacity="1" transform="matrix(1,0,0,1,0,0)" fill="#000000" class="wordmark-text-0" data-fill-palette-color="primary" id="text-0"></path></svg></g></svg></g><g transform="matrix(1,0,0,1,0,74.57319430312846)"><svg viewBox="0 0 232.20979199999996 14.561058748665818" height="14.561058748665818" width="232.20979199999996"><g transform="matrix(1,0,0,1,0,0)"><svg width="232.20979199999996" viewBox="1.2 -38.5 786.91 49.35" height="14.561058748665818" data-palette-color="#c9efc7"><path d="M12 0L12-32.95 1.2-32.95 1.2-36.4 27.7-36.4 27.7-32.95 16.75-32.95 16.75 0 12 0ZM25.6-24.75L30.1-25.3Q31-23.1 31.25-20.65L31.25-20.65Q32.55-22.7 34.75-24 36.95-25.3 39.4-25.3L39.4-25.3 38.4-20.9Q36-20.9 34.32-19.65 32.65-18.4 31.35-16.5L31.35-16.5 31.35 0 27.2 0 27.2-18Q27.2-19 27.05-20.25 26.9-21.5 26.55-22.7 26.2-23.9 25.6-24.75L25.6-24.75ZM54.09-25.45L54.09-25.45Q57.09-25.45 59.14-24.23 61.2-23 62.22-20.83 63.25-18.65 63.25-15.75L63.25-15.75Q63.25-15.05 63.17-14.33 63.09-13.6 63-12.8L63-12.8 47.2-12.8Q47.2-8.05 49.3-5.45 51.39-2.85 54.89-2.85L54.89-2.85Q56.34-2.85 57.92-3.3 59.5-3.75 61.2-4.65L61.2-4.65 62.75-2.15Q61-0.75 58.8-0.05 56.59 0.65 54.34 0.65L54.34 0.65Q50.45 0.65 47.87-1.2 45.3-3.05 44.05-6 42.8-8.95 42.8-12.15L42.8-12.15Q42.8-14.65 43.49-17 44.2-19.35 45.62-21.28 47.05-23.2 49.14-24.33 51.24-25.45 54.09-25.45ZM53.7-22.3L53.7-22.3Q51.99-22.3 50.7-21.35 49.39-20.4 48.59-18.93 47.8-17.45 47.49-15.9L47.49-15.9 58.89-15.9Q58.95-18 58.32-19.43 57.7-20.85 56.52-21.58 55.34-22.3 53.7-22.3ZM77.94-25.45L77.94-25.45Q81.89-25.45 83.89-23.3 85.89-21.15 85.89-17.25L85.89-17.25 85.89-4.8Q85.89-3.75 86.29-3.38 86.69-3 87.24-3L87.24-3Q87.69-3 88.19-3.13 88.69-3.25 89.14-3.45L89.14-3.45 90.04-0.75Q89.24-0.3 88.02 0.08 86.79 0.45 85.49 0.45L85.49 0.45Q84.19 0.45 83.14-0.28 82.09-1 81.84-2.95L81.84-2.95Q80.39-1.4 78.44-0.43 76.49 0.55 74.34 0.55L74.34 0.55Q71.39 0.55 69.44-1.2 67.49-2.95 67.49-6L67.49-6Q67.49-8.85 68.87-10.55 70.24-12.25 72.44-13.1 74.64-13.95 77.12-14.25 79.59-14.55 81.74-14.55L81.74-14.55 81.74-17.2Q81.74-19.3 80.89-20.75 80.04-22.2 77.59-22.2L77.59-22.2Q75.69-22.2 73.94-21.45 72.19-20.7 70.44-19.25L70.44-19.25 68.39-22.2Q70.44-23.85 72.89-24.65 75.34-25.45 77.94-25.45ZM81.74-9.7L81.74-11.3Q80.39-11.3 78.69-11.18 76.99-11.05 75.39-10.58 73.79-10.1 72.77-9.05 71.74-8 71.74-6.15L71.74-6.15Q71.74-4.5 72.87-3.73 73.99-2.95 75.69-2.95L75.69-2.95Q77.49-2.95 78.84-3.95 80.19-4.95 80.97-6.5 81.74-8.05 81.74-9.7L81.74-9.7ZM96.79-31.95L99.84-31.95Q99.49-30.25 99.22-28.43 98.94-26.6 98.84-24.85L98.84-24.85 105.34-24.85 104.49-21.7 98.84-21.7 98.84-5.8Q98.84-4.85 99.07-4.13 99.29-3.4 99.87-3.03 100.44-2.65 101.49-2.65L101.49-2.65Q102.29-2.65 103.09-2.8 103.89-2.95 104.64-3.15L104.64-3.15 105.34-0.35Q104.09 0 102.97 0.28 101.84 0.55 100.39 0.55L100.39 0.55Q97.19 0.55 95.94-1.15 94.69-2.85 94.69-5.9L94.69-5.9 94.69-21.7 90.99-21.7 90.99-24.2Q92.99-24.25 94.14-25.53 95.29-26.8 95.89-28.6 96.49-30.4 96.79-31.95L96.79-31.95ZM118.44-24.85L122.94-24.85Q124.04-21.75 125.11-18.65 126.19-15.55 127.29-12.3L127.29-12.3Q127.84-10.6 128.41-8.88 128.99-7.15 129.53-5.45L129.53-5.45Q130.09-7.2 130.66-8.9 131.24-10.6 131.78-12.3L131.78-12.3Q132.89-15.55 133.96-18.65 135.03-21.75 136.14-24.85L136.14-24.85 140.04-24.85 131.24 0.1Q130.69 1.65 129.84 3.53 128.99 5.4 127.84 7.05 126.69 8.7 125.14 9.78 123.59 10.85 121.64 10.85L121.64 10.85 119.74 10.85 119.74 7.5Q119.89 7.5 120.01 7.5 120.14 7.5 120.29 7.5L120.29 7.5Q122.39 7.5 123.76 6.25 125.14 5 126.04 3.23 126.94 1.45 127.54-0.2L127.54-0.2 118.44-24.85ZM153.13 0.65L153.13 0.65Q149.48 0.65 147.01-1.18 144.53-3 143.31-5.95 142.08-8.9 142.08-12.25L142.08-12.25Q142.08-15.6 143.41-18.63 144.73-21.65 147.28-23.55 149.83-25.45 153.43-25.45L153.43-25.45Q157.13-25.45 159.61-23.65 162.08-21.85 163.31-18.9 164.53-15.95 164.53-12.55L164.53-12.55Q164.53-9.15 163.23-6.13 161.93-3.1 159.38-1.23 156.83 0.65 153.13 0.65ZM153.18-2.5L153.18-2.5Q155.13-2.5 156.46-3.43 157.78-4.35 158.61-5.85 159.43-7.35 159.78-9.08 160.13-10.8 160.13-12.4L160.13-12.4Q160.13-14.05 159.81-15.78 159.48-17.5 158.73-18.98 157.98-20.45 156.66-21.38 155.33-22.3 153.38-22.3L153.38-22.3Q151.43-22.3 150.11-21.38 148.78-20.45 147.98-18.95 147.18-17.45 146.83-15.73 146.48-14 146.48-12.4L146.48-12.4Q146.48-10.85 146.83-9.13 147.18-7.4 147.96-5.9 148.73-4.4 150.03-3.45 151.33-2.5 153.18-2.5ZM170.08-24.85L174.88-24.85 174.88-9.55Q174.88-8.1 175.13-6.58 175.38-5.05 176.26-4.05 177.13-3.05 179.03-3.05L179.03-3.05Q180.88-3.05 182.41-3.85 183.93-4.65 184.88-6.08 185.83-7.5 185.83-9.4L185.83-9.4 185.83-21.9Q185.83-21.95 185.68-22.63 185.53-23.3 185.38-24.03 185.23-24.75 185.18-24.85L185.18-24.85 189.98-24.85 189.98-4.85Q189.98-3.9 190.31-3.45 190.63-3 191.33-3L191.33-3Q192.03-3 193.23-3.45L193.23-3.45 194.13-0.75Q193.13-0.2 191.91 0.13 190.68 0.45 189.58 0.45L189.58 0.45Q188.28 0.45 187.28-0.3 186.28-1.05 185.98-2.95L185.98-2.95Q184.53-1.45 182.51-0.4 180.48 0.65 178.33 0.65L178.33 0.65Q175.58 0.65 173.91-0.5 172.23-1.65 171.48-3.63 170.73-5.6 170.73-8.2L170.73-8.2 170.73-21.9 170.08-24.85ZM196.83-24.75L201.33-25.3Q202.23-23.1 202.48-20.65L202.48-20.65Q203.78-22.7 205.98-24 208.18-25.3 210.63-25.3L210.63-25.3 209.63-20.9Q207.23-20.9 205.55-19.65 203.88-18.4 202.58-16.5L202.58-16.5 202.58 0 198.43 0 198.43-18Q198.43-19 198.28-20.25 198.13-21.5 197.78-22.7 197.43-23.9 196.83-24.75L196.83-24.75ZM224.03-25.45L224.03-25.45Q225.73-25.45 227.4-25.03 229.08-24.6 230.48-23.7L230.48-23.7 229.03-20.5Q227.93-21.4 226.58-21.85 225.23-22.3 223.93-22.3L223.93-22.3Q222.08-22.3 220.7-21.45 219.33-20.6 219.33-18.9L219.33-18.9Q219.33-17.05 220.55-16.15 221.78-15.25 223.48-14.45L223.48-14.45Q224.73-13.85 226-13.23 227.28-12.6 228.35-11.73 229.43-10.85 230.1-9.63 230.78-8.4 230.78-6.6L230.78-6.6Q230.78-4.1 229.55-2.48 228.33-0.85 226.35-0.1 224.38 0.65 222.08 0.65L222.08 0.65Q220.08 0.65 218.08 0.1 216.08-0.45 214.38-1.45L214.38-1.45 216.13-4.5Q217.33-3.6 218.83-3.05 220.33-2.5 221.73-2.5L221.73-2.5Q223.63-2.5 225.05-3.4 226.48-4.3 226.48-6.1L226.48-6.1Q226.48-7.35 225.7-8.18 224.93-9 223.73-9.65 222.53-10.3 221.23-10.9L221.23-10.9Q219.73-11.65 218.3-12.53 216.88-13.4 215.98-14.75 215.08-16.1 215.08-18.2L215.08-18.2Q215.08-20.6 216.35-22.2 217.63-23.8 219.68-24.63 221.73-25.45 224.03-25.45ZM246.82-25.45L246.82-25.45Q249.82-25.45 251.87-24.23 253.92-23 254.95-20.83 255.97-18.65 255.97-15.75L255.97-15.75Q255.97-15.05 255.9-14.33 255.82-13.6 255.72-12.8L255.72-12.8 239.92-12.8Q239.92-8.05 242.02-5.45 244.12-2.85 247.62-2.85L247.62-2.85Q249.07-2.85 250.65-3.3 252.22-3.75 253.92-4.65L253.92-4.65 255.47-2.15Q253.72-0.75 251.52-0.05 249.32 0.65 247.07 0.65L247.07 0.65Q243.17 0.65 240.6-1.2 238.02-3.05 236.77-6 235.52-8.95 235.52-12.15L235.52-12.15Q235.52-14.65 236.22-17 236.92-19.35 238.35-21.28 239.77-23.2 241.87-24.33 243.97-25.45 246.82-25.45ZM246.42-22.3L246.42-22.3Q244.72-22.3 243.42-21.35 242.12-20.4 241.32-18.93 240.52-17.45 240.22-15.9L240.22-15.9 251.62-15.9Q251.67-18 251.05-19.43 250.42-20.85 249.25-21.58 248.07-22.3 246.42-22.3ZM261.57-38.1L266.37-38.1 266.37 0 262.22 0 262.22-35.2 261.57-38.1ZM285.72-38.5L285.72-38.5Q287.12-38.5 288.24-38.23 289.37-37.95 290.57-37.25L290.57-37.25 289.42-34.15Q288.77-34.75 287.74-35.08 286.72-35.4 285.82-35.4L285.82-35.4Q283.62-35.4 282.34-34.4 281.07-33.4 280.44-31.78 279.82-30.15 279.62-28.33 279.42-26.5 279.42-24.85L279.42-24.85 286.57-24.85 285.67-21.75 279.42-21.75 279.42 0 275.32 0 275.32-21.75 271.57-21.75 271.57-24.35Q272.37-24.45 273.19-24.53 274.02-24.6 274.62-25 275.22-25.4 275.42-26.35L275.42-26.35Q275.92-28.65 276.17-30.08 276.42-31.5 276.87-32.6 277.32-33.7 278.32-35L278.32-35Q279.57-36.6 281.42-37.55 283.27-38.5 285.72-38.5ZM297.11-24.85L301.41-24.85 305.71-10.4Q305.91-9.75 306.09-9.05 306.26-8.35 306.46-7.35L306.46-7.35Q306.66-8.35 306.84-9.03 307.01-9.7 307.21-10.3L307.21-10.3 311.76-24.85 314.71-24.85 319.06-10.4Q319.26-9.75 319.44-9.05 319.61-8.35 319.81-7.35L319.81-7.35Q320.01-8.35 320.21-9.05 320.41-9.75 320.61-10.4L320.61-10.4 325.06-24.85 328.76-24.85 320.91 0.3 317.91 0.3Q317.06-2.6 316.21-5.28 315.36-7.95 314.56-10.8 313.76-13.65 312.86-17.15L312.86-17.15Q311.96-13.65 311.09-10.8 310.21-7.95 309.34-5.28 308.46-2.6 307.51 0.3L307.51 0.3 304.46 0.3 297.11-24.85ZM338.61-33.2L338.61-33.2Q338.61-31.95 337.74-31.05 336.86-30.15 335.56-30.15L335.56-30.15Q334.31-30.15 333.44-31.05 332.56-31.95 332.56-33.2L332.56-33.2Q332.56-34.45 333.44-35.35 334.31-36.25 335.56-36.25L335.56-36.25Q336.81-36.25 337.71-35.35 338.61-34.45 338.61-33.2ZM332.96-24.85L337.71-24.85 337.71 0 333.56 0 333.56-21.9 332.96-24.85ZM348.71-31.95L351.76-31.95Q351.41-30.25 351.13-28.43 350.86-26.6 350.76-24.85L350.76-24.85 357.26-24.85 356.41-21.7 350.76-21.7 350.76-5.8Q350.76-4.85 350.98-4.13 351.21-3.4 351.78-3.03 352.36-2.65 353.41-2.65L353.41-2.65Q354.21-2.65 355.01-2.8 355.81-2.95 356.56-3.15L356.56-3.15 357.26-0.35Q356.01 0 354.88 0.28 353.76 0.55 352.31 0.55L352.31 0.55Q349.11 0.55 347.86-1.15 346.61-2.85 346.61-5.9L346.61-5.9 346.61-21.7 342.91-21.7 342.91-24.2Q344.91-24.25 346.06-25.53 347.21-26.8 347.81-28.6 348.41-30.4 348.71-31.95L348.71-31.95ZM361.71-38.1L366.46-38.1 366.46-21.9Q368.06-23.4 369.91-24.45 371.76-25.5 374.01-25.5L374.01-25.5Q376.76-25.5 378.41-24.35 380.06-23.2 380.81-21.23 381.56-19.25 381.56-16.65L381.56-16.65 381.56 0 377.46 0 377.46-15.3Q377.46-16.85 377.23-18.32 377.01-19.8 376.16-20.8 375.31-21.8 373.31-21.8L373.31-21.8Q372.06-21.8 370.83-21.3 369.61-20.8 368.51-20.05 367.41-19.3 366.46-18.5L366.46-18.5 366.46 0 362.36 0 362.36-35.15 361.71-38.1ZM410.35 0.65L410.35 0.65Q406.7 0.65 404.23-1.18 401.75-3 400.53-5.95 399.3-8.9 399.3-12.25L399.3-12.25Q399.3-15.6 400.63-18.63 401.95-21.65 404.5-23.55 407.05-25.45 410.65-25.45L410.65-25.45Q414.35-25.45 416.83-23.65 419.3-21.85 420.53-18.9 421.75-15.95 421.75-12.55L421.75-12.55Q421.75-9.15 420.45-6.13 419.15-3.1 416.6-1.23 414.05 0.65 410.35 0.65ZM410.4-2.5L410.4-2.5Q412.35-2.5 413.68-3.43 415-4.35 415.83-5.85 416.65-7.35 417-9.08 417.35-10.8 417.35-12.4L417.35-12.4Q417.35-14.05 417.03-15.78 416.7-17.5 415.95-18.98 415.2-20.45 413.88-21.38 412.55-22.3 410.6-22.3L410.6-22.3Q408.65-22.3 407.33-21.38 406-20.45 405.2-18.95 404.4-17.45 404.05-15.73 403.7-14 403.7-12.4L403.7-12.4Q403.7-10.85 404.05-9.13 404.4-7.4 405.18-5.9 405.95-4.4 407.25-3.45 408.55-2.5 410.4-2.5ZM427.3-24.85L432.1-24.85 432.1-9.55Q432.1-8.1 432.35-6.58 432.6-5.05 433.47-4.05 434.35-3.05 436.25-3.05L436.25-3.05Q438.1-3.05 439.62-3.85 441.15-4.65 442.1-6.08 443.05-7.5 443.05-9.4L443.05-9.4 443.05-21.9Q443.05-21.95 442.9-22.63 442.75-23.3 442.6-24.03 442.45-24.75 442.4-24.85L442.4-24.85 447.2-24.85 447.2-4.85Q447.2-3.9 447.52-3.45 447.85-3 448.55-3L448.55-3Q449.25-3 450.45-3.45L450.45-3.45 451.35-0.75Q450.35-0.2 449.12 0.13 447.9 0.45 446.8 0.45L446.8 0.45Q445.5 0.45 444.5-0.3 443.5-1.05 443.2-2.95L443.2-2.95Q441.75-1.45 439.72-0.4 437.7 0.65 435.55 0.65L435.55 0.65Q432.8 0.65 431.12-0.5 429.45-1.65 428.7-3.63 427.95-5.6 427.95-8.2L427.95-8.2 427.95-21.9 427.3-24.85ZM454.05-24.75L458.55-25.3Q459.45-23.1 459.7-20.65L459.7-20.65Q461-22.7 463.2-24 465.4-25.3 467.85-25.3L467.85-25.3 466.85-20.9Q464.45-20.9 462.77-19.65 461.1-18.4 459.8-16.5L459.8-16.5 459.8 0 455.65 0 455.65-18Q455.65-19 455.5-20.25 455.35-21.5 455-22.7 454.65-23.9 454.05-24.75L454.05-24.75ZM484.24-36.4L490.99-36.4 499.84-12.75Q500.29-11.5 500.72-10.3 501.14-9.1 501.59-7.55L501.59-7.55Q501.99-9.05 502.39-10.23 502.79-11.4 503.24-12.6L503.24-12.6 512.04-36.4 518.09-36.4 518.09 0 513.49 0 513.49-26.35Q513.49-27.25 513.54-28.1 513.59-28.95 513.64-30L513.64-30Q513.34-29.2 512.99-28.35 512.64-27.5 512.34-26.65L512.34-26.65 502.54 0.05 499.74 0.05 489.84-26.9Q489.59-27.65 489.24-28.48 488.89-29.3 488.64-30L488.64-30Q488.74-29.05 488.77-28.25 488.79-27.45 488.79-26.6L488.79-26.6 488.79 0 484.99 0 484.99-33.1 484.24-36.4ZM531.69-33.2L531.69-33.2Q531.69-31.95 530.81-31.05 529.94-30.15 528.64-30.15L528.64-30.15Q527.39-30.15 526.51-31.05 525.64-31.95 525.64-33.2L525.64-33.2Q525.64-34.45 526.51-35.35 527.39-36.25 528.64-36.25L528.64-36.25Q529.89-36.25 530.79-35.35 531.69-34.45 531.69-33.2ZM526.04-24.85L530.79-24.85 530.79 0 526.64 0 526.64-21.9 526.04-24.85ZM537.33-24.65L541.88-25.25Q542.23-24.4 542.48-23.5 542.73-22.6 542.83-21.7L542.83-21.7Q544.33-23.2 546.38-24.33 548.43-25.45 550.58-25.45L550.58-25.45Q553.33-25.45 555.01-24.3 556.68-23.15 557.43-21.18 558.18-19.2 558.18-16.6L558.18-16.6 558.18 0 554.08 0 554.08-15.25Q554.08-16.8 553.86-18.3 553.63-19.8 552.76-20.78 551.88-21.75 549.88-21.75L549.88-21.75Q548.68-21.75 547.43-21.28 546.18-20.8 545.08-20.05 543.98-19.3 543.08-18.45L543.08-18.45 543.08 0 538.98 0 538.98-17.6Q538.98-18.6 538.83-19.93 538.68-21.25 538.33-22.53 537.98-23.8 537.33-24.65L537.33-24.65ZM569.13-31.95L572.18-31.95Q571.83-30.25 571.56-28.43 571.28-26.6 571.18-24.85L571.18-24.85 577.68-24.85 576.83-21.7 571.18-21.7 571.18-5.8Q571.18-4.85 571.41-4.13 571.63-3.4 572.21-3.03 572.78-2.65 573.83-2.65L573.83-2.65Q574.63-2.65 575.43-2.8 576.23-2.95 576.98-3.15L576.98-3.15 577.68-0.35Q576.43 0 575.31 0.28 574.18 0.55 572.73 0.55L572.73 0.55Q569.53 0.55 568.28-1.15 567.03-2.85 567.03-5.9L567.03-5.9 567.03-21.7 563.33-21.7 563.33-24.2Q565.33-24.25 566.48-25.53 567.63-26.8 568.23-28.6 568.83-30.4 569.13-31.95L569.13-31.95ZM599.43-33.2L599.43-33.2Q599.43-31.95 598.55-31.05 597.68-30.15 596.38-30.15L596.38-30.15Q595.13-30.15 594.25-31.05 593.38-31.95 593.38-33.2L593.38-33.2Q593.38-34.45 594.25-35.35 595.13-36.25 596.38-36.25L596.38-36.25Q597.63-36.25 598.53-35.35 599.43-34.45 599.43-33.2ZM593.78-24.85L598.53-24.85 598.53 0 594.38 0 594.38-21.9 593.78-24.85ZM616.42-25.45L616.42-25.45Q618.32-25.45 620.25-24.83 622.17-24.2 624.02-22.9L624.02-22.9 621.77-20Q620.37-21.15 619.02-21.68 617.67-22.2 616.42-22.2L616.42-22.2Q614.92-22.2 613.65-21.5 612.37-20.8 611.4-19.53 610.42-18.25 609.9-16.45 609.37-14.65 609.37-12.45L609.37-12.45Q609.37-7.75 611.5-5.25 613.62-2.75 616.87-2.75L616.87-2.75Q618.32-2.75 619.7-3.2 621.07-3.65 622.57-4.5L622.57-4.5 623.92-1.85Q621.92-0.6 620.07 0.03 618.22 0.65 615.92 0.65L615.92 0.65Q612.72 0.65 610.25-0.98 607.77-2.6 606.35-5.6 604.92-8.6 604.92-12.65L604.92-12.65Q604.92-16.55 606.5-19.43 608.07-22.3 610.7-23.88 613.32-25.45 616.42-25.45ZM638.72-25.45L638.72-25.45Q641.72-25.45 643.77-24.23 645.82-23 646.85-20.83 647.87-18.65 647.87-15.75L647.87-15.75Q647.87-15.05 647.8-14.33 647.72-13.6 647.62-12.8L647.62-12.8 631.82-12.8Q631.82-8.05 633.92-5.45 636.02-2.85 639.52-2.85L639.52-2.85Q640.97-2.85 642.55-3.3 644.12-3.75 645.82-4.65L645.82-4.65 647.37-2.15Q645.62-0.75 643.42-0.05 641.22 0.65 638.97 0.65L638.97 0.65Q635.07 0.65 632.5-1.2 629.92-3.05 628.67-6 627.42-8.95 627.42-12.15L627.42-12.15Q627.42-14.65 628.12-17 628.82-19.35 630.25-21.28 631.67-23.2 633.77-24.33 635.87-25.45 638.72-25.45ZM638.32-22.3L638.32-22.3Q636.62-22.3 635.32-21.35 634.02-20.4 633.22-18.93 632.42-17.45 632.12-15.9L632.12-15.9 643.52-15.9Q643.57-18 642.95-19.43 642.32-20.85 641.15-21.58 639.97-22.3 638.32-22.3ZM675.12-25.45L675.12-25.45Q677.02-25.45 678.94-24.83 680.87-24.2 682.72-22.9L682.72-22.9 680.47-20Q679.07-21.15 677.72-21.68 676.37-22.2 675.12-22.2L675.12-22.2Q673.62-22.2 672.34-21.5 671.07-20.8 670.09-19.53 669.12-18.25 668.59-16.45 668.07-14.65 668.07-12.45L668.07-12.45Q668.07-7.75 670.19-5.25 672.32-2.75 675.57-2.75L675.57-2.75Q677.02-2.75 678.39-3.2 679.77-3.65 681.27-4.5L681.27-4.5 682.62-1.85Q680.62-0.6 678.77 0.03 676.92 0.65 674.62 0.65L674.62 0.65Q671.42 0.65 668.94-0.98 666.47-2.6 665.04-5.6 663.62-8.6 663.62-12.65L663.62-12.65Q663.62-16.55 665.19-19.43 666.77-22.3 669.39-23.88 672.02-25.45 675.12-25.45ZM686.36-24.75L690.86-25.3Q691.76-23.1 692.01-20.65L692.01-20.65Q693.31-22.7 695.51-24 697.71-25.3 700.16-25.3L700.16-25.3 699.16-20.9Q696.76-20.9 695.09-19.65 693.41-18.4 692.11-16.5L692.11-16.5 692.11 0 687.96 0 687.96-18Q687.96-19 687.81-20.25 687.66-21.5 687.31-22.7 686.96-23.9 686.36-24.75L686.36-24.75ZM714.86-25.45L714.86-25.45Q717.86-25.45 719.91-24.23 721.96-23 722.99-20.83 724.01-18.65 724.01-15.75L724.01-15.75Q724.01-15.05 723.94-14.33 723.86-13.6 723.76-12.8L723.76-12.8 707.96-12.8Q707.96-8.05 710.06-5.45 712.16-2.85 715.66-2.85L715.66-2.85Q717.11-2.85 718.69-3.3 720.26-3.75 721.96-4.65L721.96-4.65 723.51-2.15Q721.76-0.75 719.56-0.05 717.36 0.65 715.11 0.65L715.11 0.65Q711.21 0.65 708.64-1.2 706.06-3.05 704.81-6 703.56-8.95 703.56-12.15L703.56-12.15Q703.56-14.65 704.26-17 704.96-19.35 706.39-21.28 707.81-23.2 709.91-24.33 712.01-25.45 714.86-25.45ZM714.46-22.3L714.46-22.3Q712.76-22.3 711.46-21.35 710.16-20.4 709.36-18.93 708.56-17.45 708.26-15.9L708.26-15.9 719.66-15.9Q719.71-18 719.09-19.43 718.46-20.85 717.29-21.58 716.11-22.3 714.46-22.3ZM738.71-25.45L738.71-25.45Q742.66-25.45 744.66-23.3 746.66-21.15 746.66-17.25L746.66-17.25 746.66-4.8Q746.66-3.75 747.06-3.38 747.46-3 748.01-3L748.01-3Q748.46-3 748.96-3.13 749.46-3.25 749.91-3.45L749.91-3.45 750.81-0.75Q750.01-0.3 748.78 0.08 747.56 0.45 746.26 0.45L746.26 0.45Q744.96 0.45 743.91-0.28 742.86-1 742.61-2.95L742.61-2.95Q741.16-1.4 739.21-0.43 737.26 0.55 735.11 0.55L735.11 0.55Q732.16 0.55 730.21-1.2 728.26-2.95 728.26-6L728.26-6Q728.26-8.85 729.63-10.55 731.01-12.25 733.21-13.1 735.41-13.95 737.88-14.25 740.36-14.55 742.51-14.55L742.51-14.55 742.51-17.2Q742.51-19.3 741.66-20.75 740.81-22.2 738.36-22.2L738.36-22.2Q736.46-22.2 734.71-21.45 732.96-20.7 731.21-19.25L731.21-19.25 729.16-22.2Q731.21-23.85 733.66-24.65 736.11-25.45 738.71-25.45ZM742.51-9.7L742.51-11.3Q741.16-11.3 739.46-11.18 737.76-11.05 736.16-10.58 734.56-10.1 733.53-9.05 732.51-8 732.51-6.15L732.51-6.15Q732.51-4.5 733.63-3.73 734.76-2.95 736.46-2.95L736.46-2.95Q738.26-2.95 739.61-3.95 740.96-4.95 741.73-6.5 742.51-8.05 742.51-9.7L742.51-9.7ZM753.16-24.7L757.71-25.2Q758.06-24.4 758.31-23.5 758.56-22.6 758.66-21.75L758.66-21.75Q760.01-23.05 761.96-24.25 763.91-25.45 765.91-25.45L765.91-25.45Q768.31-25.45 770.01-24.48 771.71-23.5 772.76-21.3L772.76-21.3Q774.26-22.8 776.31-24.13 778.36-25.45 780.51-25.45L780.51-25.45Q783.26-25.45 784.93-24.3 786.61-23.15 787.36-21.18 788.11-19.2 788.11-16.6L788.11-16.6 788.11 0 783.96 0 783.96-15.25Q783.96-16.75 783.73-18.25 783.51-19.75 782.63-20.75 781.76-21.75 779.81-21.75L779.81-21.75Q778.06-21.75 776.36-20.63 774.66-19.5 773.51-18.35L773.51-18.35 773.51 0 769.36 0 769.36-15.25Q769.36-16.8 769.13-18.28 768.91-19.75 768.03-20.75 767.16-21.75 765.21-21.75L765.21-21.75Q764.11-21.75 762.96-21.23 761.81-20.7 760.76-19.93 759.71-19.15 758.91-18.45L758.91-18.45 758.91 0 754.76 0 754.76-18.05Q754.76-19.1 754.58-20.3 754.41-21.5 754.06-22.65 753.71-23.8 753.16-24.7L753.16-24.7Z" opacity="1" transform="matrix(1,0,0,1,0,0)" fill="#000000" class="slogan-text-1" data-fill-palette-color="secondary" id="text-1"></path></svg></g></svg></g></svg></g></svg></g></svg></g><defs></defs></svg><rect width="395.5199999999999" height="88.69079905651174" fill="none" stroke="none" visibility="hidden"></rect></g></svg></g></svg>